<?xml version="1.0" encoding="utf-8"?>
<!-- Generator: Adobe Illustrator 16.0.0, SVG Export Plug-In . SVG Version: 6.00 Build 0)  -->
<!DOCTYPE svg PUBLIC "-//W3C//DTD SVG 1.1//EN" "http://www.w3.org/Graphics/SVG/1.1/DTD/svg11.dtd">
<svg version="1.1" id="katman_1" xmlns="http://www.w3.org/2000/svg" xmlns:xlink="http://www.w3.org/1999/xlink" x="0px" y="0px"
	 width="462.71px" height="179.417px" viewBox="0 0 462.71 179.417" enable-background="new 0 0 462.71 179.417"
	 xml:space="preserve">
<g>
	<g>
		<rect y="41.908" fill="#EB5E5D" width="10.135" height="137.509"/>
		<rect x="15.085" y="21.738" fill="#EB5E5D" width="10.136" height="157.679"/>
		<rect x="30.171" y="107.906" fill="#EB5E5D" width="10.135" height="71.511"/>
		<rect x="45.256" y="64.824" fill="#EB5E5D" width="10.136" height="114.593"/>
		<rect x="60.344" y="129.447" fill="#EB5E5D" width="10.135" height="49.97"/>
		<rect x="135.771" y="88.871" fill="#EB5E5D" width="10.138" height="90.546"/>
		<rect x="120.688" y="75.589" fill="#EB5E5D" width="10.134" height="103.827"/>
		<rect x="105.6" y="132.328" fill="#EB5E5D" width="10.136" height="47.089"/>
		<rect x="90.515" y="103.96" fill="#EB5E5D" width="10.134" height="75.456"/>
		<rect x="75.43" y="146.513" fill="#EB5E5D" width="10.135" height="32.903"/>
		<rect x="150.858" y="67.453" fill="#EB5E5D" width="10.136" height="111.963"/>
		<rect x="165.943" fill="#EB5E5D" width="10.134" height="179.417"/>
		<rect x="181.031" y="101.183" fill="#EB5E5D" width="10.134" height="78.233"/>
		<rect x="226.286" y="105.693" fill="#EB5E5D" width="10.138" height="73.724"/>
		<rect x="211.201" y="61.275" fill="#EB5E5D" width="10.136" height="118.141"/>
		<rect x="196.115" y="127.902" fill="#EB5E5D" width="10.136" height="51.515"/>
		<rect x="286.629" y="88.871" fill="#EB5E5D" width="10.137" height="90.546"/>
		<rect x="271.543" y="75.589" fill="#EB5E5D" width="10.137" height="103.827"/>
		<rect x="256.458" y="132.328" fill="#EB5E5D" width="10.137" height="47.089"/>
		<rect x="241.372" y="103.96" fill="#EB5E5D" width="10.137" height="75.456"/>
		<rect x="301.715" y="67.453" fill="#EB5E5D" width="10.136" height="111.963"/>
		<rect x="316.801" y="150.988" fill="#EB5E5D" width="10.134" height="28.429"/>
		<rect x="331.887" y="132.328" fill="#EB5E5D" width="10.135" height="47.089"/>
		<rect x="362.059" y="64.219" fill="#EB5E5D" width="10.135" height="115.197"/>
		<rect x="377.144" y="47.326" fill="#EB5E5D" width="10.136" height="132.091"/>
		<rect x="392.23" y="119.509" fill="#EB5E5D" width="10.136" height="59.907"/>
		<rect x="407.317" y="83.42" fill="#EB5E5D" width="10.133" height="95.996"/>
		<rect x="346.973" y="36.976" fill="#EB5E5D" width="10.136" height="142.44"/>
		<rect x="422.403" y="113.193" fill="#EB5E5D" width="10.134" height="66.224"/>
		<rect x="437.487" y="150.541" fill="#EB5E5D" width="10.138" height="28.876"/>
		<rect x="452.575" y="160.402" fill="#EB5E5D" width="10.136" height="19.015"/>
	</g>
</g>
</svg>
