<?xml version="1.0" encoding="utf-8"?>
<!-- Generator: Adobe Illustrator 16.0.0, SVG Export Plug-In . SVG Version: 6.00 Build 0)  -->
<!DOCTYPE svg PUBLIC "-//W3C//DTD SVG 1.1//EN" "http://www.w3.org/Graphics/SVG/1.1/DTD/svg11.dtd">
<svg version="1.1" id="katman_1" xmlns="http://www.w3.org/2000/svg" xmlns:xlink="http://www.w3.org/1999/xlink" x="0px" y="0px"
	 width="829.244px" height="179.417px" viewBox="0 0 829.244 179.417" enable-background="new 0 0 829.244 179.417"
	 xml:space="preserve">
<g>
	<g>
		<rect x="289.698" y="41.908" fill="#7C63A8" width="10.136" height="137.509"/>
		<rect x="304.784" y="21.738" fill="#7C63A8" width="10.136" height="157.679"/>
		<rect x="319.871" y="107.906" fill="#7C63A8" width="10.136" height="71.511"/>
		<rect x="334.957" y="64.824" fill="#7C63A8" width="10.136" height="114.593"/>
		<rect x="350.045" y="129.447" fill="#7C63A8" width="10.136" height="49.97"/>
		<rect x="425.475" y="88.871" fill="#7C63A8" width="10.138" height="90.546"/>
		<rect x="410.391" y="75.59" fill="#7C63A8" width="10.135" height="103.827"/>
		<rect x="395.303" y="132.328" fill="#7C63A8" width="10.136" height="47.089"/>
		<rect x="380.217" y="103.961" fill="#7C63A8" width="10.135" height="75.456"/>
		<rect x="365.132" y="146.514" fill="#7C63A8" width="10.136" height="32.903"/>
		<rect x="440.562" y="67.453" fill="#7C63A8" width="10.137" height="111.964"/>
		<rect x="455.648" fill="#7C63A8" width="10.135" height="179.417"/>
		<rect x="2.691" y="101.184" fill="#7C63A8" width="10.134" height="78.233"/>
		<rect x="47.948" y="105.693" fill="#7C63A8" width="10.138" height="73.724"/>
		<rect x="32.863" y="61.275" fill="#7C63A8" width="10.136" height="118.142"/>
		<rect x="17.775" y="127.902" fill="#7C63A8" width="10.137" height="51.515"/>
		<rect x="108.295" y="88.871" fill="#7C63A8" width="10.137" height="90.546"/>
		<rect x="93.209" y="75.59" fill="#7C63A8" width="10.137" height="103.827"/>
		<rect x="78.122" y="132.328" fill="#7C63A8" width="10.136" height="47.089"/>
		<rect x="63.035" y="103.961" fill="#7C63A8" width="10.137" height="75.456"/>
		<rect x="123.381" y="67.453" fill="#7C63A8" width="10.137" height="111.964"/>
		<rect x="138.468" y="150.988" fill="#7C63A8" width="10.135" height="28.429"/>
		<rect x="153.555" y="132.328" fill="#7C63A8" width="10.135" height="47.089"/>
		<rect x="183.729" y="64.22" fill="#7C63A8" width="10.135" height="115.197"/>
		<rect x="198.813" y="47.326" fill="#7C63A8" width="10.137" height="132.091"/>
		<rect x="213.9" y="119.51" fill="#7C63A8" width="10.137" height="59.907"/>
		<rect x="228.987" y="83.421" fill="#7C63A8" width="10.135" height="95.996"/>
		<rect x="168.642" y="36.977" fill="#7C63A8" width="10.136" height="142.44"/>
		<rect x="244.074" y="113.193" fill="#7C63A8" width="10.135" height="66.224"/>
		<rect x="259.159" y="150.541" fill="#7C63A8" width="10.139" height="28.876"/>
		<rect x="274.248" y="160.402" fill="#7C63A8" width="10.137" height="19.015"/>
		<rect x="560.725" y="41.908" fill="#7C63A8" width="10.136" height="137.509"/>
		<rect x="575.811" y="21.738" fill="#7C63A8" width="10.136" height="157.679"/>
		<rect x="590.897" y="107.906" fill="#7C63A8" width="10.136" height="71.511"/>
		<rect x="605.983" y="64.824" fill="#7C63A8" width="10.136" height="114.593"/>
		<rect x="621.071" y="129.447" fill="#7C63A8" width="10.136" height="49.97"/>
		<rect x="696.501" y="88.871" fill="#7C63A8" width="10.138" height="90.546"/>
		<rect x="681.417" y="75.59" fill="#7C63A8" width="10.135" height="103.827"/>
		<rect x="666.329" y="132.328" fill="#7C63A8" width="10.136" height="47.089"/>
		<rect x="651.243" y="103.961" fill="#7C63A8" width="10.135" height="75.456"/>
		<rect x="636.158" y="146.514" fill="#7C63A8" width="10.136" height="32.903"/>
		<rect x="711.589" y="67.453" fill="#7C63A8" width="10.137" height="111.964"/>
		<rect x="726.675" fill="#7C63A8" width="10.135" height="179.417"/>
		<rect x="469.84" y="47.326" fill="#7C63A8" width="10.137" height="132.091"/>
		<rect x="484.927" y="119.51" fill="#7C63A8" width="10.137" height="59.907"/>
		<rect x="500.014" y="83.421" fill="#7C63A8" width="10.135" height="95.996"/>
		<rect x="515.101" y="113.193" fill="#7C63A8" width="10.135" height="66.224"/>
		<rect x="530.186" y="150.541" fill="#7C63A8" width="10.139" height="28.876"/>
		<rect x="544.978" y="64.824" fill="#7C63A8" width="10.136" height="114.593"/>
		<rect x="741.783" y="64.22" fill="#7C63A8" width="10.135" height="115.197"/>
		<rect x="756.868" y="47.326" fill="#7C63A8" width="10.137" height="132.091"/>
		<rect x="771.955" y="119.51" fill="#7C63A8" width="10.137" height="59.907"/>
		<rect x="787.042" y="83.421" fill="#7C63A8" width="10.135" height="95.996"/>
		<rect x="802.129" y="113.193" fill="#7C63A8" width="10.135" height="66.224"/>
		<rect x="816.79" y="64.22" fill="#7C63A8" width="10.135" height="115.197"/>
		
			<polyline fill="none" stroke="#E94162" stroke-width="3" stroke-linecap="round" stroke-linejoin="round" stroke-miterlimit="10" points="
			7.416,103.854 174.208,39.52 234.35,82.483 309.768,20.356 400.55,129.524 580.869,21.604 671.733,133.127 821.975,64.492 		"/>
		
			<circle fill="#FFFFFF" stroke="#E94162" stroke-width="3" stroke-linecap="round" stroke-linejoin="round" stroke-miterlimit="10" cx="7.416" cy="103.854" r="5.916"/>
		
			<circle fill="#FFFFFF" stroke="#E94162" stroke-width="3" stroke-linecap="round" stroke-linejoin="round" stroke-miterlimit="10" cx="173.925" cy="39.604" r="5.916"/>
		
			<circle fill="#FFFFFF" stroke="#E94162" stroke-width="3" stroke-linecap="round" stroke-linejoin="round" stroke-miterlimit="10" cx="233.672" cy="83.108" r="5.916"/>
		
			<circle fill="#FFFFFF" stroke="#E94162" stroke-width="3" stroke-linecap="round" stroke-linejoin="round" stroke-miterlimit="10" cx="309.42" cy="20.965" r="5.916"/>
		
			<circle fill="#FFFFFF" stroke="#E94162" stroke-width="3" stroke-linecap="round" stroke-linejoin="round" stroke-miterlimit="10" cx="399.919" cy="129.468" r="5.916"/>
		
			<circle fill="#FFFFFF" stroke="#E94162" stroke-width="3" stroke-linecap="round" stroke-linejoin="round" stroke-miterlimit="10" cx="580.869" cy="21.937" r="5.916"/>
		
			<circle fill="#FFFFFF" stroke="#E94162" stroke-width="3" stroke-linecap="round" stroke-linejoin="round" stroke-miterlimit="10" cx="671.388" cy="132.329" r="5.916"/>
		
			<circle fill="#FFFFFF" stroke="#E94162" stroke-width="3" stroke-linecap="round" stroke-linejoin="round" stroke-miterlimit="10" cx="821.828" cy="64.825" r="5.916"/>
	</g>
</g>
</svg>
