<?xml version="1.0" encoding="utf-8"?>
<!-- Generator: Adobe Illustrator 16.0.0, SVG Export Plug-In . SVG Version: 6.00 Build 0)  -->
<!DOCTYPE svg PUBLIC "-//W3C//DTD SVG 1.1//EN" "http://www.w3.org/Graphics/SVG/1.1/DTD/svg11.dtd">
<svg version="1.1" id="katman_1" xmlns="http://www.w3.org/2000/svg" xmlns:xlink="http://www.w3.org/1999/xlink" x="0px" y="0px"
	 width="130.195px" height="130.195px" viewBox="0 0 130.195 130.195" enable-background="new 0 0 130.195 130.195"
	 xml:space="preserve">
<g>
	<path opacity="0.1" fill="#3D474E" enable-background="new    " d="M65.098,22.801c23.358,0,42.296,18.937,42.296,42.297
		c0,23.359-18.938,42.297-42.296,42.297c-23.359,0-42.298-18.937-42.298-42.297S41.738,22.801,65.098,22.801 M65.098,0
		C29.203,0,0,29.203,0,65.098c0,35.896,29.203,65.098,65.099,65.098c35.895,0,65.098-29.202,65.098-65.098
		C130.195,29.203,100.992,0,65.098,0L65.098,0z"/>
	<g opacity="0.5">
		<g enable-background="new    ">
			<path fill="#3D474E" d="M47.566,76.298V58.469h-2.736v-3.061h6.12v20.89H47.566z"/>
			<path fill="#3D474E" d="M55.303,76.004v-2.442c0.49-0.431,1.206-1.049,2.148-1.854c0.941-0.804,1.662-1.427,2.162-1.868
				c0.5-0.441,1.123-1.01,1.869-1.706c0.745-0.696,1.324-1.295,1.736-1.795c0.412-0.5,0.833-1.063,1.265-1.691
				c0.804-1.138,1.206-2.275,1.206-3.413c0-2.433-1.158-3.648-3.472-3.648c-1.158,0-2.055,0.367-2.692,1.104
				c-0.638,0.735-0.976,1.721-1.015,2.956h-3.236c0.059-2.235,0.73-3.946,2.015-5.134c1.285-1.187,2.957-1.779,5.017-1.779
				s3.692,0.578,4.899,1.735c1.206,1.157,1.809,2.688,1.809,4.59c0,1.432-0.382,2.795-1.146,4.09
				c-0.412,0.667-0.805,1.26-1.178,1.779c-0.373,0.521-0.893,1.114-1.559,1.78c-0.667,0.667-1.196,1.188-1.589,1.56
				c-0.393,0.373-0.966,0.893-1.721,1.56s-1.27,1.128-1.544,1.383h9.327v2.795H55.303z"/>
			<path fill="#3D474E" d="M74.59,55.88c1.284-1.021,2.941-1.53,4.972-1.53s3.628,0.524,4.796,1.574
				c1.166,1.049,1.75,2.388,1.75,4.016c0,1.217-0.323,2.256-0.971,3.119c-0.646,0.863-1.422,1.441-2.324,1.735v0.118
				c1.157,0.353,2.06,0.995,2.707,1.927c0.646,0.932,0.971,2.202,0.971,3.811s-0.604,2.971-1.81,4.089s-2.883,1.678-5.03,1.678
				c-2.148,0-3.904-0.545-5.268-1.634c-1.363-1.088-2.094-2.652-2.191-4.692h3.236c0.078,1.04,0.48,1.888,1.207,2.545
				c0.725,0.657,1.695,0.985,2.912,0.985c1.216,0,2.148-0.328,2.795-0.985c0.647-0.657,0.971-1.505,0.971-2.545
				c0-1.373-0.437-2.349-1.309-2.928c-0.873-0.578-2.212-0.867-4.017-0.867h-0.765V63.53h0.795c3.255-0.039,4.883-1.108,4.883-3.207
				c0-0.941-0.304-1.692-0.912-2.251c-0.607-0.559-1.466-0.839-2.574-0.839c-1.107,0-1.967,0.28-2.574,0.839
				s-0.971,1.25-1.088,2.074h-3.266C72.603,58.322,73.304,56.9,74.59,55.88z"/>
		</g>
	</g>
	<path fill="#FFD94A" d="M28.019,44.717c11.25-20.472,36.966-27.949,57.438-16.699l10.98-19.981
		C64.979-9.251,25.322,2.279,8.036,33.736c-17.287,31.458-5.758,71.115,25.7,88.401l10.98-19.981
		C24.245,90.906,16.769,65.189,28.019,44.717z"/>
</g>
</svg>
