<?xml version="1.0" encoding="utf-8"?>
<!-- Generator: Adobe Illustrator 16.0.0, SVG Export Plug-In . SVG Version: 6.00 Build 0)  -->
<!DOCTYPE svg PUBLIC "-//W3C//DTD SVG 1.1//EN" "http://www.w3.org/Graphics/SVG/1.1/DTD/svg11.dtd">
<svg version="1.1" id="katman_1" xmlns="http://www.w3.org/2000/svg" xmlns:xlink="http://www.w3.org/1999/xlink" x="0px" y="0px"
	 width="130.195px" height="130.195px" viewBox="0 0 130.195 130.195" enable-background="new 0 0 130.195 130.195"
	 xml:space="preserve">
<path opacity="0.1" fill="#3D474E" enable-background="new    " d="M66.086,22.306c23.359,0,42.296,18.938,42.296,42.296
	c0,23.359-18.937,42.296-42.296,42.296c-23.358,0-42.297-18.936-42.297-42.295C23.789,41.244,42.727,22.306,66.086,22.306
	 M66.086-0.495c-35.895,0-65.098,29.203-65.098,65.098c0,35.896,29.203,65.099,65.098,65.099c35.896,0,65.099-29.203,65.099-65.099
	C131.184,28.708,101.98-0.495,66.086-0.495L66.086-0.495z"/>
<g opacity="0.5">
	<g enable-background="new    ">
		<path fill="#3D474E" d="M47.001,75.801V57.972h-2.736v-3.061h6.12v20.89H47.001z"/>
		<path fill="#3D474E" d="M55.562,59.472c0-1.647,0.613-3.025,1.839-4.134c1.226-1.107,2.966-1.662,5.222-1.662
			c2.255,0,3.997,0.555,5.222,1.662c1.227,1.108,1.84,2.486,1.84,4.134c0,1.099-0.28,2.064-0.84,2.898
			c-0.559,0.834-1.299,1.476-2.221,1.927c1.118,0.432,2,1.118,2.648,2.06c0.646,0.941,0.971,2.069,0.971,3.384
			c0,2-0.707,3.6-2.119,4.796s-3.241,1.794-5.487,1.794s-4.075-0.598-5.487-1.794s-2.118-2.796-2.118-4.796
			c0-1.334,0.323-2.472,0.971-3.413s1.52-1.618,2.619-2.03C56.582,63.278,55.562,61.669,55.562,59.472z M66.949,69.564
			c0-1.196-0.393-2.128-1.178-2.795c-0.784-0.667-1.829-1-3.133-1s-2.364,0.323-3.177,0.971c-0.814,0.647-1.221,1.584-1.221,2.81
			s0.392,2.197,1.177,2.913c0.784,0.716,1.848,1.073,3.192,1.073c1.343,0,2.402-0.362,3.178-1.089
			C66.56,71.722,66.949,70.76,66.949,69.564z M66.478,59.796c0-1.04-0.344-1.854-1.03-2.442c-0.687-0.589-1.624-0.883-2.81-0.883
			s-2.123,0.294-2.81,0.883s-1.03,1.407-1.03,2.457c0,1.049,0.358,1.883,1.074,2.501c0.715,0.617,1.633,0.927,2.75,0.927
			c1.118,0,2.04-0.313,2.766-0.942C66.115,61.669,66.478,60.835,66.478,59.796z"/>
		<path fill="#3D474E" d="M74.656,54.294h12.945v2.942h-9.855v5.854c0.411-0.549,1.023-1.01,1.838-1.383
			c0.814-0.372,1.766-0.56,2.854-0.56c1.09,0,2.1,0.217,3.031,0.647c0.932,0.432,1.643,1.011,2.133,1.736
			c0.98,1.412,1.471,3.001,1.471,4.766c0,2.236-0.637,4.046-1.912,5.429s-3.045,2.074-5.311,2.074s-4.045-0.529-5.34-1.589
			c-1.295-1.059-2.07-2.461-2.324-4.207h3.266c0.216,0.922,0.696,1.652,1.441,2.191c0.746,0.54,1.746,0.81,3.002,0.81
			c1.254,0,2.23-0.422,2.927-1.266c0.696-0.843,1.044-1.966,1.044-3.368s-0.353-2.481-1.059-3.236s-1.746-1.133-3.119-1.133
			c-0.961,0-1.77,0.24-2.427,0.721s-1.133,1.133-1.427,1.956h-3.178V54.294z"/>
	</g>
</g>
<path fill="#EB5E5D" d="M66.086-0.495c-35.895,0-65.098,29.203-65.098,65.098h22.801c0-23.359,18.938-42.296,42.297-42.296
	c23.359,0,42.296,18.938,42.296,42.296c0,23.272-18.798,42.15-42.036,42.29v22.801c35.774-0.141,64.839-29.281,64.839-65.09
	C131.184,28.708,101.98-0.495,66.086-0.495z"/>
</svg>
