<?xml version="1.0" encoding="utf-8"?>
<!-- Generator: Adobe Illustrator 16.0.0, SVG Export Plug-In . SVG Version: 6.00 Build 0)  -->
<!DOCTYPE svg PUBLIC "-//W3C//DTD SVG 1.1//EN" "http://www.w3.org/Graphics/SVG/1.1/DTD/svg11.dtd">
<svg version="1.1" id="katman_1" xmlns="http://www.w3.org/2000/svg" xmlns:xlink="http://www.w3.org/1999/xlink" x="0px" y="0px"
	 width="130.195px" height="130.195px" viewBox="0 0 130.195 130.195" enable-background="new 0 0 130.195 130.195"
	 xml:space="preserve">
<path opacity="0.1" fill="#3D474E" enable-background="new    " d="M66.086,22.801c23.359,0,42.296,18.937,42.296,42.297
	c0,23.359-18.937,42.297-42.296,42.297c-23.358,0-42.297-18.937-42.297-42.297S42.727,22.801,66.086,22.801 M66.086,0
	C30.191,0,0.988,29.203,0.988,65.098c0,35.896,29.203,65.098,65.098,65.098c35.896,0,65.099-29.202,65.099-65.098
	C131.184,29.203,101.98,0,66.086,0L66.086,0z"/>
<path fill="#49B9EB" d="M108.413,65.084h22.771c0-16.67-6.346-33.341-19.036-46.031c-25.381-25.381-66.681-25.382-92.062,0
	l16.123,16.123c16.52-16.518,43.299-16.518,59.816,0C104.284,43.436,108.413,54.26,108.413,65.084z"/>
<g opacity="0.5">
	<g enable-background="new    ">
		<path fill="#3D474E" d="M58.666,57.115c-1.549,0-2.707,0.594-3.472,1.78c-0.765,1.187-1.167,3.152-1.206,5.898
			c0.51-0.862,1.255-1.529,2.236-2.001c0.98-0.471,2.04-0.706,3.178-0.706c1.961,0,3.55,0.628,4.766,1.884
			c1.216,1.255,1.824,2.956,1.824,5.104c0,2.147-0.617,3.889-1.853,5.222c-1.236,1.334-2.962,2.001-5.178,2.001
			c-3.041,0-5.129-1.02-6.267-3.06c-0.588-1.02-1-2.182-1.236-3.486s-0.353-2.858-0.353-4.664c0-7.179,2.53-10.768,7.591-10.768
			c1.961,0,3.505,0.529,4.634,1.589c1.127,1.059,1.79,2.363,1.986,3.913h-3.089C61.795,58.018,60.608,57.115,58.666,57.115z
			 M62.785,69.251c0-1.304-0.349-2.354-1.044-3.147c-0.696-0.795-1.682-1.191-2.957-1.191s-2.329,0.357-3.163,1.073
			c-0.834,0.717-1.25,1.751-1.25,3.104s0.387,2.427,1.162,3.222c0.775,0.794,1.819,1.191,3.133,1.191s2.329-0.383,3.045-1.147
			C62.427,71.591,62.785,70.556,62.785,69.251z"/>
		<path fill="#3D474E" d="M68.994,54.938h14.181v2.501l-8.179,18.859h-3.678l8.562-18.564H68.994V54.938z"/>
	</g>
</g>
</svg>
