<?xml version="1.0" encoding="utf-8"?>
<!-- Generator: Adobe Illustrator 16.0.0, SVG Export Plug-In . SVG Version: 6.00 Build 0)  -->
<!DOCTYPE svg PUBLIC "-//W3C//DTD SVG 1.1//EN" "http://www.w3.org/Graphics/SVG/1.1/DTD/svg11.dtd">
<svg version="1.1" id="katman_1" xmlns="http://www.w3.org/2000/svg" xmlns:xlink="http://www.w3.org/1999/xlink" x="0px" y="0px"
	 width="130.195px" height="130.195px" viewBox="0 0 130.195 130.195" enable-background="new 0 0 130.195 130.195"
	 xml:space="preserve">
<g>
	<path opacity="0.1" fill="#3D474E" enable-background="new    " d="M65.098,22.802c23.358,0,42.296,18.938,42.296,42.296
		c0,23.359-18.938,42.296-42.296,42.296c-23.359,0-42.298-18.936-42.298-42.296S41.738,22.802,65.098,22.802 M65.098,0
		C29.203,0,0,29.203,0,65.098c0,35.896,29.203,65.098,65.099,65.098c35.895,0,65.098-29.201,65.098-65.098
		C130.195,29.203,100.992,0,65.098,0L65.098,0z"/>
	<path fill="#61B55B" d="M95.007,35.189l16.102-16.101C99.32,7.301,83.046,0,65.099,0C29.204,0,0.001,29.203,0.001,65.098h22.803
		c0-23.36,18.937-42.296,42.296-42.296C76.779,22.801,87.353,27.536,95.007,35.189z"/>
	<g opacity="0.5">
		<g enable-background="new    ">
			<path fill="#3D474E" d="M58.712,76.295v-4.472h-10.65v-2.53l9.885-14.182h4.061V68.91h2.736v2.913h-2.736v4.472H58.712z
				 M58.859,68.91V58.525L51.916,68.91H58.859z"/>
			<path fill="#3D474E" d="M68.391,54.788h12.945v2.942H71.48v5.854c0.412-0.549,1.025-1.01,1.84-1.383
				c0.812-0.372,1.765-0.56,2.854-0.56c1.088,0,2.098,0.217,3.03,0.647c0.931,0.432,1.643,1.011,2.133,1.736
				c0.98,1.412,1.472,3.001,1.472,4.766c0,2.236-0.639,4.046-1.913,5.429s-3.045,2.074-5.311,2.074c-2.265,0-4.046-0.529-5.34-1.589
				c-1.294-1.059-2.069-2.461-2.324-4.207h3.266c0.216,0.922,0.696,1.652,1.442,2.191c0.744,0.54,1.744,0.81,3,0.81
				s2.231-0.422,2.928-1.266c0.695-0.843,1.045-1.966,1.045-3.368s-0.354-2.481-1.06-3.236s-1.746-1.133-3.118-1.133
				c-0.962,0-1.771,0.24-2.428,0.721c-0.657,0.48-1.133,1.133-1.428,1.956h-3.177V54.788z"/>
		</g>
	</g>
</g>
</svg>
