<?xml version="1.0" encoding="utf-8"?>
<!-- Generator: Adobe Illustrator 16.0.0, SVG Export Plug-In . SVG Version: 6.00 Build 0)  -->
<!DOCTYPE svg PUBLIC "-//W3C//DTD SVG 1.1//EN" "http://www.w3.org/Graphics/SVG/1.1/DTD/svg11.dtd">
<svg version="1.1" id="katman_1" xmlns="http://www.w3.org/2000/svg" xmlns:xlink="http://www.w3.org/1999/xlink" x="0px" y="0px"
	 width="130.195px" height="130.195px" viewBox="0 0 130.195 130.195" enable-background="new 0 0 130.195 130.195"
	 xml:space="preserve">
<path opacity="0.1" fill="#3D474E" enable-background="new    " d="M66.07,22.316c23.359,0,42.296,18.938,42.296,42.296
	c0,23.359-18.936,42.299-42.296,42.299S23.773,87.972,23.773,64.612C23.773,41.252,42.711,22.316,66.07,22.316 M66.07-0.485
	c-35.896,0-65.098,29.203-65.098,65.098c0,35.896,29.203,65.098,65.098,65.098c35.894,0,65.098-29.203,65.098-65.099
	C131.168,28.717,101.965-0.485,66.07-0.485L66.07-0.485z"/>
<g opacity="0.5">
	<g enable-background="new    ">
		<path fill="#3D474E" d="M57.022,75.813V57.984h-2.736v-3.061h6.12v20.89H57.022z"/>
		<path fill="#3D474E" d="M64.76,75.519v-2.442c0.49-0.431,1.207-1.049,2.148-1.854c0.941-0.804,1.662-1.427,2.162-1.868
			s1.123-1.01,1.869-1.706c0.744-0.696,1.323-1.295,1.735-1.795c0.411-0.5,0.833-1.063,1.265-1.691
			c0.805-1.138,1.207-2.275,1.207-3.413c0-2.433-1.158-3.648-3.473-3.648c-1.157,0-2.055,0.367-2.691,1.104
			c-0.638,0.735-0.977,1.721-1.016,2.956h-3.236c0.059-2.235,0.73-3.946,2.015-5.134c1.285-1.187,2.957-1.779,5.017-1.779
			s3.692,0.578,4.898,1.735s1.81,2.688,1.81,4.59c0,1.432-0.383,2.795-1.147,4.09c-0.412,0.667-0.805,1.26-1.177,1.779
			c-0.373,0.521-0.893,1.114-1.56,1.78c-0.667,0.667-1.196,1.188-1.589,1.56c-0.393,0.373-0.967,0.893-1.721,1.56
			c-0.756,0.667-1.271,1.128-1.545,1.383h9.326v2.795H64.76z"/>
	</g>
</g>
<path fill="#EA5085" d="M35.19,93.505c-6.827-7.299-11.101-17.021-11.389-27.736h-22.8c0.299,16.983,7.143,32.392,18.096,43.83
	L35.19,93.505z"/>
</svg>
