<?xml version="1.0" encoding="utf-8"?>
<!-- Generator: Adobe Illustrator 16.0.0, SVG Export Plug-In . SVG Version: 6.00 Build 0)  -->
<!DOCTYPE svg PUBLIC "-//W3C//DTD SVG 1.1//EN" "http://www.w3.org/Graphics/SVG/1.1/DTD/svg11.dtd">
<svg version="1.1" id="katman_1" xmlns="http://www.w3.org/2000/svg" xmlns:xlink="http://www.w3.org/1999/xlink" x="0px" y="0px"
	 width="120.383px" height="21.328px" viewBox="0 0 120.383 21.328" enable-background="new 0 0 120.383 21.328"
	 xml:space="preserve">
<g>
	<path fill="#3D474D" d="M8.172,14.993l0.155-1.148l2.584-8.458c0.059-0.207,0.088-0.347,0.088-0.42c0-0.28-0.229-0.449-0.685-0.509
		l-1.06-0.132V2.603h6.14v1.745l-0.707,0.088c-0.309,0.03-0.53,0.1-0.663,0.211c-0.133,0.11-0.265,0.357-0.398,0.74L9.321,18.505
		H6.692L1.965,5.386c-0.132-0.354-0.294-0.59-0.486-0.707C1.288,4.561,1.016,4.48,0.662,4.435L0,4.347V2.603h6.648v1.723
		l-1.06,0.132c-0.427,0.06-0.641,0.214-0.641,0.464c0,0.089,0.037,0.243,0.111,0.465l2.871,8.437L8.172,14.993z"/>
	<path fill="#3D474D" d="M28.227,18.505H16.499v-1.768l1.06-0.197c0.265-0.059,0.438-0.145,0.52-0.254
		c0.081-0.111,0.121-0.307,0.121-0.586V5.297c0-0.294-0.041-0.509-0.121-0.641c-0.082-0.133-0.254-0.214-0.52-0.243l-1.06-0.133
		V2.603h11.64l-0.155,4.374h-1.855l-0.155-1.436c-0.03-0.266-0.107-0.438-0.231-0.52C25.617,4.941,25.415,4.9,25.135,4.9h-4.13
		v4.196h4.661v2.296h-4.661v4.815h4.152c0.28,0,0.486-0.041,0.619-0.121c0.133-0.082,0.206-0.254,0.221-0.52l0.155-1.547h1.922
		L28.227,18.505z"/>
	<path fill="#3D474D" d="M30.502,2.603h4.594l6.781,10.845V5.363c0-0.293-0.037-0.508-0.11-0.641
		c-0.074-0.132-0.243-0.213-0.508-0.242L40.22,4.347V2.603h6.141v1.745L45.323,4.48c-0.266,0.029-0.439,0.11-0.519,0.242
		c-0.082,0.133-0.122,0.348-0.122,0.641v13.142h-2.915L34.986,7.661v8.061c0,0.295,0.04,0.502,0.122,0.619
		c0.08,0.117,0.253,0.191,0.519,0.221l1.061,0.199v1.744H30.48v-1.744l1.06-0.199c0.265-0.045,0.438-0.121,0.519-0.232
		c0.081-0.109,0.121-0.312,0.121-0.607V5.363c0-0.293-0.04-0.508-0.121-0.641C31.978,4.59,31.805,4.509,31.54,4.48l-1.038-0.133
		V2.603z"/>
	<path fill="#3D474D" d="M57.713,4.811H55.46v10.911c0,0.295,0.041,0.498,0.121,0.607c0.081,0.111,0.254,0.188,0.52,0.232
		l1.148,0.199v1.744h-6.383v-1.744l1.148-0.199c0.266-0.045,0.438-0.121,0.52-0.232c0.08-0.109,0.121-0.312,0.121-0.607V4.811H50.38
		c-0.279,0-0.478,0.041-0.596,0.122c-0.118,0.08-0.191,0.254-0.221,0.519l-0.154,1.502h-1.855l-0.155-4.351h13.321l-0.157,4.351
		h-1.854l-0.155-1.502c-0.029-0.265-0.106-0.438-0.232-0.519C58.195,4.852,57.994,4.811,57.713,4.811z"/>
	<path fill="#3D474D" d="M74.898,5.386v7.995c0,0.751-0.121,1.437-0.365,2.054c-0.242,0.619-0.562,1.127-0.961,1.523
		c-0.396,0.398-0.869,0.738-1.414,1.018c-1,0.5-2.135,0.75-3.4,0.75c-1.855,0-3.266-0.459-4.23-1.379
		c-0.963-0.922-1.445-2.242-1.445-3.966V5.386c0-0.295-0.041-0.498-0.123-0.607c-0.08-0.111-0.254-0.188-0.518-0.232l-1.061-0.199
		V2.603h6.205v1.745l-1.059,0.199c-0.266,0.029-0.439,0.104-0.52,0.221s-0.121,0.324-0.121,0.619v7.641
		c0,1.224,0.334,2.091,1.004,2.606s1.498,0.773,2.484,0.773c0.988,0,1.701-0.178,2.143-0.531c0.443-0.354,0.664-1.361,0.664-3.024
		V5.386c0-0.295-0.041-0.498-0.121-0.607c-0.082-0.111-0.256-0.188-0.52-0.232L70.48,4.347V2.603h6.117v1.745l-1.059,0.199
		C75.273,4.576,75.1,4.65,75.02,4.767C74.938,4.884,74.898,5.091,74.898,5.386z"/>
	<path fill="#3D474D" d="M82.562,11.725v3.997c0,0.295,0.043,0.502,0.133,0.619c0.088,0.117,0.264,0.191,0.529,0.221l1.236,0.176
		v1.768h-6.404v-1.744l1.059-0.199c0.266-0.029,0.439-0.104,0.521-0.221c0.08-0.117,0.121-0.324,0.121-0.619V5.386
		c0-0.295-0.041-0.498-0.121-0.607c-0.082-0.111-0.256-0.188-0.521-0.232l-1.76-0.32V2.603h6.863c1.707,0,3.016,0.302,3.92,0.906
		c0.906,0.604,1.359,1.627,1.359,3.069c0,0.825-0.125,1.543-0.377,2.154c-0.25,0.611-0.572,1.086-0.971,1.424
		c-0.707,0.59-1.436,0.943-2.188,1.061c0.5,0.074,0.893,0.346,1.172,0.816l1.898,3.114c0.516,0.854,1.09,1.281,1.723,1.281
		c0.441,0,0.781-0.059,1.018-0.176l-0.223,1.986c-0.588,0.324-1.279,0.486-2.076,0.486c-1.059,0-1.957-0.617-2.693-1.855
		l-2.629-4.372c-0.34-0.516-0.662-0.773-0.971-0.773H82.562z M82.562,4.811v4.704h1.523c0.854,0,1.428-0.117,1.723-0.354
		c0.441-0.367,0.662-1.155,0.662-2.363c0-1.324-0.861-1.987-2.584-1.987H82.562z"/>
	<path fill="#3D474D" d="M104.605,18.505H92.877v-1.768l1.061-0.197c0.264-0.059,0.438-0.145,0.52-0.254
		c0.08-0.111,0.121-0.307,0.121-0.586V5.297c0-0.294-0.041-0.509-0.121-0.641c-0.082-0.133-0.256-0.214-0.52-0.243l-1.061-0.133
		V2.603h11.641l-0.156,4.374h-1.854l-0.156-1.436c-0.029-0.266-0.105-0.438-0.23-0.52c-0.127-0.08-0.328-0.121-0.607-0.121h-4.131
		v4.196h4.66v2.296h-4.66v4.815h4.152c0.279,0,0.486-0.041,0.619-0.121c0.131-0.082,0.205-0.254,0.221-0.52l0.154-1.547h1.922
		L104.605,18.505z"/>
</g>
</svg>
